<?xml version="1.0" encoding="UTF-8" standalone="no"?>
<!DOCTYPE svg PUBLIC "-//W3C//DTD SVG 1.1//EN"
 "http://www.w3.org/Graphics/SVG/1.1/DTD/svg11.dtd">
<!-- Generated by graphviz version 15.0.0 (20260523.1842)
 -->
<!-- Title: parajudica Pages: 1 -->
<svg width="1290pt" height="496pt"
 viewBox="0.00 0.00 1290.00 496.00" xmlns="http://www.w3.org/2000/svg" xmlns:xlink="http://www.w3.org/1999/xlink"><style>
.node polygon,.node path,.node ellipse{fill:#f4f4f2;stroke:#cfcfc9}
.node text{fill:#1a1a1a}
.edge path{stroke:#9a9a94}
.edge polygon{fill:#9a9a94;stroke:#9a9a94}
.edge text{fill:#6b6b66}
/* role colours (must follow .node so they win on equal specificity) */
.assert polygon{fill:#e8effd;stroke:#aac3f5}
.primary polygon{fill:#edeff2;stroke:#cfcfc9}
.rule polygon{fill:#f7f1e6;stroke:#d8c9ad}
.cond polygon{fill:#f3eef8;stroke:#cdbfe0}
.abstract polygon{stroke-dasharray:5 3}
.hub polygon,.hub path,.hub ellipse{fill:#e8effd;stroke:#1a56db}
@media (prefers-color-scheme:dark){
 .node polygon,.node path,.node ellipse{fill:#1c1c1c;stroke:#3a3a3a}
 .node text{fill:#d7d7d2}
 .edge path{stroke:#6b6b66}
 .edge polygon{fill:#6b6b66;stroke:#6b6b66}
 .edge text{fill:#9a9a84}
 .assert polygon{fill:#16223a;stroke:#3d5a8a}
 .primary polygon{fill:#23262b;stroke:#3a3a3a}
 .rule polygon{fill:#2a2418;stroke:#5a4d33}
 .cond polygon{fill:#251f2e;stroke:#4d3f5e}
 .hub polygon,.hub path,.hub ellipse{fill:#16223a;stroke:#8ab4f8}
}
</style>
<g id="graph0" class="graph" transform="scale(1 1) rotate(0) translate(4 492)">
<title>parajudica</title>
<!-- Assertion -->
<g id="node1" class="node assert abstract">
<title>Assertion</title>
<path fill="#eef3fd" stroke="#cfcfc9" stroke-dasharray="5,2" d="M421.57,-37C421.57,-37 367.72,-37 367.72,-37 361.72,-37 355.72,-31 355.72,-25 355.72,-25 355.72,-13 355.72,-13 355.72,-7 361.72,-1 367.72,-1 367.72,-1 421.57,-1 421.57,-1 427.57,-1 433.57,-7 433.57,-13 433.57,-13 433.57,-25 433.57,-25 433.57,-31 427.57,-37 421.57,-37"/>
<text xml:space="preserve" text-anchor="middle" x="394.65" y="-13.4" font-family="Helvetica,sans-Serif" font-size="13.00" fill="#1a1a1a">Assertion</text>
</g>
<!-- ComplianceAssertion -->
<g id="node2" class="node assert hub">
<title>ComplianceAssertion</title>
<path fill="#e8effd" stroke="#1a56db" d="M138.97,-172C138.97,-172 14.62,-172 14.62,-172 8.62,-172 2.62,-166 2.62,-160 2.62,-160 2.62,-148 2.62,-148 2.62,-142 8.62,-136 14.62,-136 14.62,-136 138.97,-136 138.97,-136 144.97,-136 150.97,-142 150.97,-148 150.97,-148 150.97,-160 150.97,-160 150.97,-166 144.97,-172 138.97,-172"/>
<text xml:space="preserve" text-anchor="middle" x="76.8" y="-148.4" font-family="Helvetica,sans-Serif" font-size="13.00" fill="#1a1a1a">ComplianceAssertion</text>
</g>
<!-- ComplianceAssertion&#45;&gt;Assertion -->
<g id="edge1" class="edge">
<title>ComplianceAssertion&#45;&gt;Assertion</title>
<path fill="none" stroke="#c4c4be" d="M113.51,-135.57C126.38,-128.58 140.87,-120.29 153.6,-112 169.02,-101.96 169.96,-94.86 186.6,-87 231.53,-65.77 248.55,-77.72 295.35,-61 310.7,-55.52 313.44,-51.57 328.35,-45 334.61,-42.24 341.26,-39.44 347.83,-36.76"/>
<polygon fill="none" stroke="#c4c4be" points="348.5,-39.13 354.07,-34.23 346.66,-34.58 348.5,-39.13"/>
</g>
<!-- Framework -->
<g id="node5" class="node primary">
<title>Framework</title>
<path fill="#edeff2" stroke="#cfcfc9" d="M426.82,-171C426.82,-171 362.47,-171 362.47,-171 356.47,-171 350.47,-165 350.47,-159 350.47,-159 350.47,-147 350.47,-147 350.47,-141 356.47,-135 362.47,-135 362.47,-135 426.82,-135 426.82,-135 432.82,-135 438.82,-141 438.82,-147 438.82,-147 438.82,-159 438.82,-159 438.82,-165 432.82,-171 426.82,-171"/>
<text xml:space="preserve" text-anchor="middle" x="394.65" y="-147.4" font-family="Helvetica,sans-Serif" font-size="13.00" fill="#1a1a1a">Framework</text>
</g>
<!-- ComplianceAssertion&#45;&gt;Framework -->
<g id="edge16" class="edge">
<title>ComplianceAssertion&#45;&gt;Framework</title>
<path fill="none" stroke="#9a9a94" d="M151.45,-153.77C209.82,-153.58 289.9,-153.33 341.71,-153.16"/>
<polygon fill="#9a9a94" stroke="#9a9a94" points="341.59,-155.61 348.58,-153.14 341.57,-150.71 341.59,-155.61"/>
<text xml:space="preserve" text-anchor="middle" x="240.97" y="-155.2" font-family="Helvetica,sans-Serif" font-size="11.00" fill="#6b6b66">assertedByFramework</text>
</g>
<!-- ComplianceLabel -->
<g id="node7" class="node primary">
<title>ComplianceLabel</title>
<path fill="#edeff2" stroke="#cfcfc9" d="M445.2,-89C445.2,-89 344.1,-89 344.1,-89 338.1,-89 332.1,-83 332.1,-77 332.1,-77 332.1,-65 332.1,-65 332.1,-59 338.1,-53 344.1,-53 344.1,-53 445.2,-53 445.2,-53 451.2,-53 457.2,-59 457.2,-65 457.2,-65 457.2,-77 457.2,-77 457.2,-83 451.2,-89 445.2,-89"/>
<text xml:space="preserve" text-anchor="middle" x="394.65" y="-65.4" font-family="Helvetica,sans-Serif" font-size="13.00" fill="#1a1a1a">ComplianceLabel</text>
</g>
<!-- ComplianceAssertion&#45;&gt;ComplianceLabel -->
<g id="edge14" class="edge">
<title>ComplianceAssertion&#45;&gt;ComplianceLabel</title>
<path fill="none" stroke="#9a9a94" d="M112.19,-135.73C133.16,-125.29 160.82,-112.78 186.6,-105 211.67,-97.44 273.86,-87.65 323.59,-80.52"/>
<polygon fill="#9a9a94" stroke="#9a9a94" points="323.69,-82.98 330.27,-79.57 323,-78.13 323.69,-82.98"/>
<text xml:space="preserve" text-anchor="middle" x="240.97" y="-106.55" font-family="Helvetica,sans-Serif" font-size="11.00" fill="#6b6b66">assertsLabel</text>
</g>
<!-- DataContainer -->
<g id="node8" class="node primary">
<title>DataContainer</title>
<path fill="#edeff2" stroke="#cfcfc9" d="M436.95,-419C436.95,-419 352.35,-419 352.35,-419 346.35,-419 340.35,-413 340.35,-407 340.35,-407 340.35,-395 340.35,-395 340.35,-389 346.35,-383 352.35,-383 352.35,-383 436.95,-383 436.95,-383 442.95,-383 448.95,-389 448.95,-395 448.95,-395 448.95,-407 448.95,-407 448.95,-413 442.95,-419 436.95,-419"/>
<text xml:space="preserve" text-anchor="middle" x="394.65" y="-395.4" font-family="Helvetica,sans-Serif" font-size="13.00" fill="#1a1a1a">DataContainer</text>
</g>
<!-- ComplianceAssertion&#45;&gt;DataContainer -->
<g id="edge13" class="edge">
<title>ComplianceAssertion&#45;&gt;DataContainer</title>
<path fill="none" stroke="#9a9a94" d="M86.97,-172.36C103.24,-203.35 139.89,-266.42 186.6,-305 229.74,-340.63 288.29,-366.16 332.12,-381.89"/>
<polygon fill="#9a9a94" stroke="#9a9a94" points="331.28,-384.2 338.7,-384.21 332.91,-379.58 331.28,-384.2"/>
<text xml:space="preserve" text-anchor="middle" x="240.97" y="-368.24" font-family="Helvetica,sans-Serif" font-size="11.00" fill="#6b6b66">assertedOn</text>
</g>
<!-- GovernanceScope -->
<g id="node9" class="node primary">
<title>GovernanceScope</title>
<path fill="#edeff2" stroke="#cfcfc9" d="M448.95,-351C448.95,-351 340.35,-351 340.35,-351 334.35,-351 328.35,-345 328.35,-339 328.35,-339 328.35,-327 328.35,-327 328.35,-321 334.35,-315 340.35,-315 340.35,-315 448.95,-315 448.95,-315 454.95,-315 460.95,-321 460.95,-327 460.95,-327 460.95,-339 460.95,-339 460.95,-345 454.95,-351 448.95,-351"/>
<text xml:space="preserve" text-anchor="middle" x="394.65" y="-327.4" font-family="Helvetica,sans-Serif" font-size="13.00" fill="#1a1a1a">GovernanceScope</text>
</g>
<!-- ComplianceAssertion&#45;&gt;GovernanceScope -->
<g id="edge15" class="edge">
<title>ComplianceAssertion&#45;&gt;GovernanceScope</title>
<path fill="none" stroke="#9a9a94" d="M104.37,-172.31C149.21,-202.72 243.33,-264.5 328.35,-307 331.22,-308.43 334.18,-309.84 337.19,-311.22"/>
<polygon fill="#9a9a94" stroke="#9a9a94" points="335.98,-313.37 343.37,-313.97 337.97,-308.89 335.98,-313.37"/>
<text xml:space="preserve" text-anchor="middle" x="240.97" y="-290.09" font-family="Helvetica,sans-Serif" font-size="11.00" fill="#6b6b66">assertedInScope</text>
</g>
<!-- ContainmentAssertion -->
<g id="node3" class="node assert">
<title>ContainmentAssertion</title>
<path fill="#eef3fd" stroke="#cfcfc9" d="M141.6,-36C141.6,-36 12,-36 12,-36 6,-36 0,-30 0,-24 0,-24 0,-12 0,-12 0,-6 6,0 12,0 12,0 141.6,0 141.6,0 147.6,0 153.6,-6 153.6,-12 153.6,-12 153.6,-24 153.6,-24 153.6,-30 147.6,-36 141.6,-36"/>
<text xml:space="preserve" text-anchor="middle" x="76.8" y="-12.4" font-family="Helvetica,sans-Serif" font-size="13.00" fill="#1a1a1a">ContainmentAssertion</text>
</g>
<!-- ContainmentAssertion&#45;&gt;Assertion -->
<g id="edge2" class="edge">
<title>ContainmentAssertion&#45;&gt;Assertion</title>
<path fill="none" stroke="#c4c4be" d="M153.86,-18.24C214.08,-18.43 296.25,-18.69 347.09,-18.85"/>
<polygon fill="none" stroke="#c4c4be" points="347.06,-21.3 354.07,-18.87 347.08,-16.4 347.06,-21.3"/>
</g>
<!-- ConditionEvaluation -->
<g id="node4" class="node assert">
<title>ConditionEvaluation</title>
<path fill="#eef3fd" stroke="#cfcfc9" d="M135.6,-104C135.6,-104 18,-104 18,-104 12,-104 6,-98 6,-92 6,-92 6,-80 6,-80 6,-74 12,-68 18,-68 18,-68 135.6,-68 135.6,-68 141.6,-68 147.6,-74 147.6,-80 147.6,-80 147.6,-92 147.6,-92 147.6,-98 141.6,-104 135.6,-104"/>
<text xml:space="preserve" text-anchor="middle" x="76.8" y="-80.4" font-family="Helvetica,sans-Serif" font-size="13.00" fill="#1a1a1a">ConditionEvaluation</text>
</g>
<!-- ConditionEvaluation&#45;&gt;DataContainer -->
<g id="edge17" class="edge">
<title>ConditionEvaluation&#45;&gt;DataContainer</title>
<path fill="none" stroke="#9a9a94" d="M117.42,-67.52C165.72,-48.07 246.88,-25.73 295.35,-69 343.74,-112.19 294.1,-303.92 328.35,-359 332.93,-366.36 339.33,-372.68 346.34,-378"/>
<polygon fill="#9a9a94" stroke="#9a9a94" points="344.55,-379.74 351.69,-381.75 347.36,-375.73 344.55,-379.74"/>
<text xml:space="preserve" text-anchor="middle" x="240.97" y="-70.55" font-family="Helvetica,sans-Serif" font-size="11.00" fill="#6b6b66">evaluatedOn</text>
</g>
<!-- Framework&#45;&gt;Framework -->
<g id="edge18" class="edge">
<title>Framework&#45;&gt;Framework</title>
<path fill="none" stroke="#9a9a94" d="M367.37,-171.19C364.39,-179.63 373.49,-187 394.65,-187 408.54,-187 417.23,-183.82 420.72,-179.26"/>
<polygon fill="#9a9a94" stroke="#9a9a94" points="423.09,-179.97 421.7,-172.69 418.24,-179.25 423.09,-179.97"/>
<text xml:space="preserve" text-anchor="middle" x="394.65" y="-188.55" font-family="Helvetica,sans-Serif" font-size="11.00" fill="#6b6b66">extends</text>
</g>
<!-- Facet -->
<g id="node6" class="node primary">
<title>Facet</title>
<path fill="#edeff2" stroke="#cfcfc9" d="M410.32,-269C410.32,-269 378.97,-269 378.97,-269 372.97,-269 366.97,-263 366.97,-257 366.97,-257 366.97,-245 366.97,-245 366.97,-239 372.97,-233 378.97,-233 378.97,-233 410.32,-233 410.32,-233 416.32,-233 422.32,-239 422.32,-245 422.32,-245 422.32,-257 422.32,-257 422.32,-263 416.32,-269 410.32,-269"/>
<text xml:space="preserve" text-anchor="middle" x="394.65" y="-245.4" font-family="Helvetica,sans-Serif" font-size="13.00" fill="#1a1a1a">Facet</text>
</g>
<!-- Framework&#45;&gt;Facet -->
<g id="edge19" class="edge">
<title>Framework&#45;&gt;Facet</title>
<path fill="none" stroke="#9a9a94" d="M394.65,-171.43C394.65,-186.35 394.65,-207.57 394.65,-224.34"/>
<polygon fill="#9a9a94" stroke="#9a9a94" points="392.2,-224.14 394.65,-231.14 397.1,-224.14 392.2,-224.14"/>
<text xml:space="preserve" text-anchor="middle" x="385.65" y="-197.55" font-family="Helvetica,sans-Serif" font-size="11.00" fill="#6b6b66">hasFacet</text>
</g>
<!-- Declaration -->
<g id="node10" class="node rule abstract">
<title>Declaration</title>
<path fill="#f5eee1" stroke="#cfcfc9" stroke-dasharray="5,2" d="M970.9,-124C970.9,-124 905.05,-124 905.05,-124 899.05,-124 893.05,-118 893.05,-112 893.05,-112 893.05,-100 893.05,-100 893.05,-94 899.05,-88 905.05,-88 905.05,-88 970.9,-88 970.9,-88 976.9,-88 982.9,-94 982.9,-100 982.9,-100 982.9,-112 982.9,-112 982.9,-118 976.9,-124 970.9,-124"/>
<text xml:space="preserve" text-anchor="middle" x="937.97" y="-100.4" font-family="Helvetica,sans-Serif" font-size="13.00" fill="#1a1a1a">Declaration</text>
</g>
<!-- Framework&#45;&gt;Declaration -->
<g id="edge25" class="edge">
<title>Framework&#45;&gt;Declaration</title>
<path fill="none" stroke="#9a9a94" d="M439.03,-149.23C537.48,-140.69 777.48,-119.85 884.25,-110.58"/>
<polygon fill="#9a9a94" stroke="#9a9a94" points="884.36,-113.03 891.12,-109.98 883.93,-108.15 884.36,-113.03"/>
<text xml:space="preserve" text-anchor="middle" x="706.87" y="-134.56" font-family="Helvetica,sans-Serif" font-size="11.00" fill="#6b6b66">declares</text>
</g>
<!-- PropagationRule -->
<g id="node16" class="node rule">
<title>PropagationRule</title>
<path fill="#f7f1e6" stroke="#cfcfc9" d="M755.92,-488C755.92,-488 657.82,-488 657.82,-488 651.82,-488 645.82,-482 645.82,-476 645.82,-476 645.82,-464 645.82,-464 645.82,-458 651.82,-452 657.82,-452 657.82,-452 755.92,-452 755.92,-452 761.92,-452 767.92,-458 767.92,-464 767.92,-464 767.92,-476 767.92,-476 767.92,-482 761.92,-488 755.92,-488"/>
<text xml:space="preserve" text-anchor="middle" x="706.87" y="-464.4" font-family="Helvetica,sans-Serif" font-size="13.00" fill="#1a1a1a">PropagationRule</text>
</g>
<!-- Framework&#45;&gt;PropagationRule -->
<g id="edge26" class="edge">
<title>Framework&#45;&gt;PropagationRule</title>
<path fill="none" stroke="#9a9a94" d="M413.05,-171.23C426.49,-185.54 445.37,-206.13 460.95,-225 538.4,-318.83 526.15,-373.35 625.2,-444 629.19,-446.85 633.51,-449.39 638,-451.67"/>
<polygon fill="#9a9a94" stroke="#9a9a94" points="636.95,-453.88 644.33,-454.61 639.01,-449.44 636.95,-453.88"/>
<text xml:space="preserve" text-anchor="middle" x="543.07" y="-416.67" font-family="Helvetica,sans-Serif" font-size="11.00" fill="#6b6b66">hasPropagationRule</text>
</g>
<!-- Facet&#45;&gt;Facet -->
<g id="edge22" class="edge">
<title>Facet&#45;&gt;Facet</title>
<path fill="none" stroke="#9a9a94" d="M367.37,-269.19C364.39,-277.63 373.49,-285 394.65,-285 408.54,-285 417.23,-281.82 420.72,-277.26"/>
<polygon fill="#9a9a94" stroke="#9a9a94" points="423.09,-277.97 421.7,-270.69 418.24,-277.25 423.09,-277.97"/>
<text xml:space="preserve" text-anchor="middle" x="394.65" y="-286.55" font-family="Helvetica,sans-Serif" font-size="11.00" fill="#6b6b66">hasSubfacet</text>
</g>
<!-- ComplianceLabel&#45;&gt;Facet -->
<g id="edge20" class="edge">
<title>ComplianceLabel&#45;&gt;Facet</title>
<path fill="none" stroke="#9a9a94" d="M331.83,-72.44C295.45,-76.92 252.31,-89.24 228.71,-121 187.25,-176.8 298.7,-221.37 358.95,-240.65"/>
<polygon fill="#9a9a94" stroke="#9a9a94" points="357.88,-242.89 365.29,-242.64 359.35,-238.21 357.88,-242.89"/>
<text xml:space="preserve" text-anchor="middle" x="240.97" y="-122.55" font-family="Helvetica,sans-Serif" font-size="11.00" fill="#6b6b66">belongsToFacet</text>
</g>
<!-- ComplianceLabel&#45;&gt;ComplianceLabel -->
<g id="edge21" class="edge">
<title>ComplianceLabel&#45;&gt;ComplianceLabel</title>
<path fill="none" stroke="#9a9a94" d="M367.37,-89.19C364.39,-97.63 373.49,-105 394.65,-105 408.54,-105 417.23,-101.82 420.72,-97.26"/>
<polygon fill="#9a9a94" stroke="#9a9a94" points="423.09,-97.97 421.7,-90.69 418.24,-97.25 423.09,-97.97"/>
<text xml:space="preserve" text-anchor="middle" x="394.65" y="-106.55" font-family="Helvetica,sans-Serif" font-size="11.00" fill="#6b6b66">isSubclassOf</text>
</g>
<!-- DataContainer&#45;&gt;DataContainer -->
<g id="edge23" class="edge">
<title>DataContainer&#45;&gt;DataContainer</title>
<path fill="none" stroke="#9a9a94" d="M367.37,-419.19C364.39,-427.63 373.49,-435 394.65,-435 408.54,-435 417.23,-431.82 420.72,-427.26"/>
<polygon fill="#9a9a94" stroke="#9a9a94" points="423.09,-427.97 421.7,-420.69 418.24,-427.25 423.09,-427.97"/>
<text xml:space="preserve" text-anchor="middle" x="394.65" y="-436.55" font-family="Helvetica,sans-Serif" font-size="11.00" fill="#6b6b66">contains, joinableWith</text>
</g>
<!-- DataContainer&#45;&gt;GovernanceScope -->
<g id="edge24" class="edge">
<title>DataContainer&#45;&gt;GovernanceScope</title>
<path fill="none" stroke="#9a9a94" d="M394.65,-382.73C394.65,-375.56 394.65,-367.19 394.65,-359.39"/>
<polygon fill="#9a9a94" stroke="#9a9a94" points="397.1,-359.74 394.65,-352.74 392.2,-359.74 397.1,-359.74"/>
<text xml:space="preserve" text-anchor="middle" x="385.65" y="-362.55" font-family="Helvetica,sans-Serif" font-size="11.00" fill="#6b6b66">availableInScope</text>
</g>
<!-- Declaration&#45;&gt;ComplianceLabel -->
<g id="edge27" class="edge">
<title>Declaration&#45;&gt;ComplianceLabel</title>
<path fill="none" stroke="#9a9a94" d="M892.92,-115.65C880.27,-119.56 866.85,-124.89 855.55,-132 818.83,-155.11 828.39,-185.82 788.55,-203 721.89,-231.75 695.34,-221.73 625.2,-203 546.1,-181.88 465.97,-126.27 424.52,-94.37"/>
<polygon fill="#9a9a94" stroke="#9a9a94" points="426.19,-92.56 419.15,-90.2 423.18,-96.43 426.19,-92.56"/>
<text xml:space="preserve" text-anchor="middle" x="706.87" y="-222.55" font-family="Helvetica,sans-Serif" font-size="11.00" fill="#6b6b66">fromLabels / toLabel</text>
</g>
<!-- ConditionalDeclaration -->
<g id="node11" class="node rule abstract">
<title>ConditionalDeclaration</title>
<path fill="#f5eee1" stroke="#cfcfc9" stroke-dasharray="5,2" d="M1004.65,-436C1004.65,-436 871.3,-436 871.3,-436 865.3,-436 859.3,-430 859.3,-424 859.3,-424 859.3,-412 859.3,-412 859.3,-406 865.3,-400 871.3,-400 871.3,-400 1004.65,-400 1004.65,-400 1010.65,-400 1016.65,-406 1016.65,-412 1016.65,-412 1016.65,-424 1016.65,-424 1016.65,-430 1010.65,-436 1004.65,-436"/>
<text xml:space="preserve" text-anchor="middle" x="937.97" y="-412.4" font-family="Helvetica,sans-Serif" font-size="13.00" fill="#1a1a1a">ConditionalDeclaration</text>
</g>
<!-- ConditionalDeclaration&#45;&gt;Declaration -->
<g id="edge5" class="edge">
<title>ConditionalDeclaration&#45;&gt;Declaration</title>
<path fill="none" stroke="#c4c4be" d="M859.02,-409.51C844.6,-404.29 831.23,-396.26 822.05,-384 789.55,-340.6 789.55,-183.4 822.05,-140 836.49,-120.71 861.32,-111.89 884.3,-108.02"/>
<polygon fill="none" stroke="#c4c4be" points="884.59,-110.46 891.17,-107.03 883.89,-105.61 884.59,-110.46"/>
</g>
<!-- Condition -->
<g id="node17" class="node cond abstract">
<title>Condition</title>
<path fill="#efe9f5" stroke="#cfcfc9" stroke-dasharray="5,2" d="M1270,-306C1270,-306 1215.4,-306 1215.4,-306 1209.4,-306 1203.4,-300 1203.4,-294 1203.4,-294 1203.4,-282 1203.4,-282 1203.4,-276 1209.4,-270 1215.4,-270 1215.4,-270 1270,-270 1270,-270 1276,-270 1282,-276 1282,-282 1282,-282 1282,-294 1282,-294 1282,-300 1276,-306 1270,-306"/>
<text xml:space="preserve" text-anchor="middle" x="1242.7" y="-282.4" font-family="Helvetica,sans-Serif" font-size="13.00" fill="#1a1a1a">Condition</text>
</g>
<!-- ConditionalDeclaration&#45;&gt;Condition -->
<g id="edge29" class="edge">
<title>ConditionalDeclaration&#45;&gt;Condition</title>
<path fill="none" stroke="#9a9a94" d="M1010.88,-399.56C1057.76,-386.08 1119.48,-365.53 1170.4,-339 1185.2,-331.29 1200.41,-320.82 1212.96,-311.38"/>
<polygon fill="#9a9a94" stroke="#9a9a94" points="1214.37,-313.38 1218.44,-307.18 1211.39,-309.49 1214.37,-313.38"/>
<text xml:space="preserve" text-anchor="middle" x="1111.9" y="-386.11" font-family="Helvetica,sans-Serif" font-size="11.00" fill="#6b6b66">hasCondition</text>
</g>
<!-- Rule -->
<g id="node12" class="node rule abstract">
<title>Rule</title>
<path fill="#f5eee1" stroke="#cfcfc9" stroke-dasharray="5,2" d="M952.97,-488C952.97,-488 922.97,-488 922.97,-488 916.97,-488 910.97,-482 910.97,-476 910.97,-476 910.97,-464 910.97,-464 910.97,-458 916.97,-452 922.97,-452 922.97,-452 952.97,-452 952.97,-452 958.97,-452 964.97,-458 964.97,-464 964.97,-464 964.97,-476 964.97,-476 964.97,-482 958.97,-488 952.97,-488"/>
<text xml:space="preserve" text-anchor="middle" x="937.97" y="-464.4" font-family="Helvetica,sans-Serif" font-size="13.00" fill="#1a1a1a">Rule</text>
</g>
<!-- SubclassDeclaration -->
<g id="node13" class="node rule">
<title>SubclassDeclaration</title>
<path fill="#f7f1e6" stroke="#cfcfc9" d="M767.17,-195C767.17,-195 646.57,-195 646.57,-195 640.57,-195 634.57,-189 634.57,-183 634.57,-183 634.57,-171 634.57,-171 634.57,-165 640.57,-159 646.57,-159 646.57,-159 767.17,-159 767.17,-159 773.17,-159 779.17,-165 779.17,-171 779.17,-171 779.17,-183 779.17,-183 779.17,-189 773.17,-195 767.17,-195"/>
<text xml:space="preserve" text-anchor="middle" x="706.87" y="-171.4" font-family="Helvetica,sans-Serif" font-size="13.00" fill="#1a1a1a">SubclassDeclaration</text>
</g>
<!-- SubclassDeclaration&#45;&gt;Declaration -->
<g id="edge3" class="edge">
<title>SubclassDeclaration&#45;&gt;Declaration</title>
<path fill="none" stroke="#c4c4be" d="M774.81,-158.57C790.54,-154.01 807.18,-149 822.55,-144 837.39,-139.17 840.78,-137.04 855.55,-132 864.99,-128.78 875.08,-125.46 884.83,-122.31"/>
<polygon fill="none" stroke="#c4c4be" points="885.56,-124.65 891.48,-120.18 884.07,-119.98 885.56,-124.65"/>
</g>
<!-- EquivalenceDeclaration -->
<g id="node14" class="node rule">
<title>EquivalenceDeclaration</title>
<path fill="#f7f1e6" stroke="#cfcfc9" d="M776.55,-99C776.55,-99 637.2,-99 637.2,-99 631.2,-99 625.2,-93 625.2,-87 625.2,-87 625.2,-75 625.2,-75 625.2,-69 631.2,-63 637.2,-63 637.2,-63 776.55,-63 776.55,-63 782.55,-63 788.55,-69 788.55,-75 788.55,-75 788.55,-87 788.55,-87 788.55,-93 782.55,-99 776.55,-99"/>
<text xml:space="preserve" text-anchor="middle" x="706.87" y="-75.4" font-family="Helvetica,sans-Serif" font-size="13.00" fill="#1a1a1a">EquivalenceDeclaration</text>
</g>
<!-- EquivalenceDeclaration&#45;&gt;Declaration -->
<g id="edge4" class="edge">
<title>EquivalenceDeclaration&#45;&gt;Declaration</title>
<path fill="none" stroke="#c4c4be" d="M788.97,-89.85C820.72,-93.31 856.23,-97.19 884.5,-100.27"/>
<polygon fill="none" stroke="#c4c4be" points="883.93,-102.68 891.15,-101 884.46,-97.8 883.93,-102.68"/>
</g>
<!-- ConditionalEquivalence -->
<g id="node15" class="node rule">
<title>ConditionalEquivalence</title>
<path fill="#f7f1e6" stroke="#cfcfc9" d="M776.17,-436C776.17,-436 637.57,-436 637.57,-436 631.57,-436 625.57,-430 625.57,-424 625.57,-424 625.57,-412 625.57,-412 625.57,-406 631.57,-400 637.57,-400 637.57,-400 776.17,-400 776.17,-400 782.17,-400 788.17,-406 788.17,-412 788.17,-412 788.17,-424 788.17,-424 788.17,-430 782.17,-436 776.17,-436"/>
<text xml:space="preserve" text-anchor="middle" x="706.87" y="-412.4" font-family="Helvetica,sans-Serif" font-size="13.00" fill="#1a1a1a">ConditionalEquivalence</text>
</g>
<!-- ConditionalEquivalence&#45;&gt;ConditionalDeclaration -->
<g id="edge6" class="edge">
<title>ConditionalEquivalence&#45;&gt;ConditionalDeclaration</title>
<path fill="none" stroke="#c4c4be" d="M788.65,-418C808.69,-418 830.24,-418 850.54,-418"/>
<polygon fill="none" stroke="#c4c4be" points="850.34,-420.45 857.34,-418 850.34,-415.55 850.34,-420.45"/>
</g>
<!-- PropagationRule&#45;&gt;ComplianceLabel -->
<g id="edge28" class="edge">
<title>PropagationRule&#45;&gt;ComplianceLabel</title>
<path fill="none" stroke="#9a9a94" d="M645.4,-458.76C637.76,-455.12 630.71,-450.33 625.2,-444 569.49,-380.02 631.67,-331.09 592.2,-256 554.43,-184.14 477.78,-124.82 432.16,-93.98"/>
<polygon fill="#9a9a94" stroke="#9a9a94" points="433.55,-91.96 426.37,-90.11 430.83,-96.04 433.55,-91.96"/>
<text xml:space="preserve" text-anchor="middle" x="543.07" y="-257.55" font-family="Helvetica,sans-Serif" font-size="11.00" fill="#6b6b66">propagatesLabel</text>
</g>
<!-- PropagationRule&#45;&gt;Rule -->
<g id="edge7" class="edge">
<title>PropagationRule&#45;&gt;Rule</title>
<path fill="none" stroke="#c4c4be" d="M768.37,-470C811.2,-470 867.12,-470 902.55,-470"/>
<polygon fill="none" stroke="#c4c4be" points="902.14,-472.45 909.14,-470 902.14,-467.55 902.14,-472.45"/>
</g>
<!-- HasLabelCondition -->
<g id="node18" class="node cond">
<title>HasLabelCondition</title>
<path fill="#f3eef8" stroke="#cfcfc9" d="M993.77,-384C993.77,-384 882.17,-384 882.17,-384 876.17,-384 870.17,-378 870.17,-372 870.17,-372 870.17,-360 870.17,-360 870.17,-354 876.17,-348 882.17,-348 882.17,-348 993.77,-348 993.77,-348 999.77,-348 1005.77,-354 1005.77,-360 1005.77,-360 1005.77,-372 1005.77,-372 1005.77,-378 999.77,-384 993.77,-384"/>
<text xml:space="preserve" text-anchor="middle" x="937.97" y="-360.4" font-family="Helvetica,sans-Serif" font-size="13.00" fill="#1a1a1a">HasLabelCondition</text>
</g>
<!-- HasLabelCondition&#45;&gt;Condition -->
<g id="edge8" class="edge">
<title>HasLabelCondition&#45;&gt;Condition</title>
<path fill="none" stroke="#c4c4be" d="M1006.25,-352.08C1052.66,-342.04 1115.63,-327.57 1170.4,-312 1178.41,-309.72 1186.85,-307.09 1195.01,-304.42"/>
<polygon fill="none" stroke="#c4c4be" points="1195.75,-306.76 1201.62,-302.23 1194.2,-302.11 1195.75,-306.76"/>
</g>
<!-- ContainsLabelCondition -->
<g id="node19" class="node cond">
<title>ContainsLabelCondition</title>
<path fill="#f3eef8" stroke="#cfcfc9" d="M1008.4,-332C1008.4,-332 867.55,-332 867.55,-332 861.55,-332 855.55,-326 855.55,-320 855.55,-320 855.55,-308 855.55,-308 855.55,-302 861.55,-296 867.55,-296 867.55,-296 1008.4,-296 1008.4,-296 1014.4,-296 1020.4,-302 1020.4,-308 1020.4,-308 1020.4,-320 1020.4,-320 1020.4,-326 1014.4,-332 1008.4,-332"/>
<text xml:space="preserve" text-anchor="middle" x="937.97" y="-308.4" font-family="Helvetica,sans-Serif" font-size="13.00" fill="#1a1a1a">ContainsLabelCondition</text>
</g>
<!-- ContainsLabelCondition&#45;&gt;Condition -->
<g id="edge9" class="edge">
<title>ContainsLabelCondition&#45;&gt;Condition</title>
<path fill="none" stroke="#c4c4be" d="M1020.9,-306.96C1076.61,-302.18 1148.36,-296.02 1194.69,-292.04"/>
<polygon fill="none" stroke="#c4c4be" points="1194.76,-294.49 1201.53,-291.45 1194.34,-289.61 1194.76,-294.49"/>
</g>
<!-- RelationLabelCondition -->
<g id="node20" class="node cond">
<title>RelationLabelCondition</title>
<path fill="#f3eef8" stroke="#cfcfc9" d="M1006.52,-280C1006.52,-280 869.42,-280 869.42,-280 863.42,-280 857.42,-274 857.42,-268 857.42,-268 857.42,-256 857.42,-256 857.42,-250 863.42,-244 869.42,-244 869.42,-244 1006.52,-244 1006.52,-244 1012.52,-244 1018.52,-250 1018.52,-256 1018.52,-256 1018.52,-268 1018.52,-268 1018.52,-274 1012.52,-280 1006.52,-280"/>
<text xml:space="preserve" text-anchor="middle" x="937.97" y="-256.4" font-family="Helvetica,sans-Serif" font-size="13.00" fill="#1a1a1a">RelationLabelCondition</text>
</g>
<!-- RelationLabelCondition&#45;&gt;Condition -->
<g id="edge10" class="edge">
<title>RelationLabelCondition&#45;&gt;Condition</title>
<path fill="none" stroke="#c4c4be" d="M1018.91,-268.87C1074.81,-273.67 1147.58,-279.92 1194.48,-283.94"/>
<polygon fill="none" stroke="#c4c4be" points="1194.23,-286.38 1201.41,-284.54 1194.65,-281.5 1194.23,-286.38"/>
</g>
<!-- ComparisonCondition -->
<g id="node21" class="node cond">
<title>ComparisonCondition</title>
<path fill="#f3eef8" stroke="#cfcfc9" d="M1001.27,-228C1001.27,-228 874.67,-228 874.67,-228 868.67,-228 862.67,-222 862.67,-216 862.67,-216 862.67,-204 862.67,-204 862.67,-198 868.67,-192 874.67,-192 874.67,-192 1001.27,-192 1001.27,-192 1007.27,-192 1013.27,-198 1013.27,-204 1013.27,-204 1013.27,-216 1013.27,-216 1013.27,-222 1007.27,-228 1001.27,-228"/>
<text xml:space="preserve" text-anchor="middle" x="937.97" y="-204.4" font-family="Helvetica,sans-Serif" font-size="13.00" fill="#1a1a1a">ComparisonCondition</text>
</g>
<!-- ComparisonCondition&#45;&gt;Condition -->
<g id="edge11" class="edge">
<title>ComparisonCondition&#45;&gt;Condition</title>
<path fill="none" stroke="#c4c4be" d="M1013.63,-228.15C1059.04,-239.33 1118.16,-254.13 1170.4,-268 1178.41,-270.13 1186.92,-272.45 1195.15,-274.74"/>
<polygon fill="none" stroke="#c4c4be" points="1194.41,-277.08 1201.81,-276.6 1195.73,-272.36 1194.41,-277.08"/>
</g>
<!-- CompositeCondition -->
<g id="node22" class="node cond">
<title>CompositeCondition</title>
<path fill="#f3eef8" stroke="#cfcfc9" d="M997.15,-176C997.15,-176 878.8,-176 878.8,-176 872.8,-176 866.8,-170 866.8,-164 866.8,-164 866.8,-152 866.8,-152 866.8,-146 872.8,-140 878.8,-140 878.8,-140 997.15,-140 997.15,-140 1003.15,-140 1009.15,-146 1009.15,-152 1009.15,-152 1009.15,-164 1009.15,-164 1009.15,-170 1003.15,-176 997.15,-176"/>
<text xml:space="preserve" text-anchor="middle" x="937.97" y="-152.4" font-family="Helvetica,sans-Serif" font-size="13.00" fill="#1a1a1a">CompositeCondition</text>
</g>
<!-- CompositeCondition&#45;&gt;Condition -->
<g id="edge12" class="edge">
<title>CompositeCondition&#45;&gt;Condition</title>
<path fill="none" stroke="#c4c4be" d="M1009.48,-145.67C1058.08,-140.88 1122.33,-142.2 1170.4,-171 1204.2,-191.25 1224.11,-234.28 1233.96,-262.13"/>
<polygon fill="none" stroke="#c4c4be" points="1231.53,-262.62 1236.1,-268.47 1236.18,-261.05 1231.53,-262.62"/>
</g>
<!-- CompositeCondition&#45;&gt;Condition -->
<g id="edge30" class="edge">
<title>CompositeCondition&#45;&gt;Condition</title>
<path fill="none" stroke="#9a9a94" stroke-dasharray="5,2" d="M1009.57,-168.99C1057.18,-178.48 1120.22,-195.16 1170.4,-223 1189.33,-233.5 1207.31,-249.96 1220.48,-263.69"/>
<polygon fill="#9a9a94" stroke="#9a9a94" points="1218.57,-265.23 1225.15,-268.67 1222.15,-261.88 1218.57,-265.23"/>
<text xml:space="preserve" text-anchor="middle" x="1111.9" y="-224.55" font-family="Helvetica,sans-Serif" font-size="11.00" fill="#6b6b66">hasCondition (AND/OR)</text>
</g>
</g>
</svg>
